<svg width="589" height="589" viewBox="0 0 589 589" fill="none" xmlns="http://www.w3.org/2000/svg">
<g clip-path="url(#clip0_719_246)">
<path d="M529.984 469.426H490.966V469.72H529.984V469.426Z" fill="#EBEBEB"/>
<path d="M390.178 472.623H379.938V472.918H390.178V472.623Z" fill="#EBEBEB"/>
<path d="M489.786 458.487H467.178V458.782H489.786V458.487Z" fill="#EBEBEB"/>
<path d="M112.678 460.466H61.7969V460.761H112.678V460.466Z" fill="#EBEBEB"/>
<path d="M130.627 460.466H123.167V460.761H130.627V460.466Z" fill="#EBEBEB"/>
<path d="M265.222 465.441H154.872V465.735H265.222V465.441Z" fill="#EBEBEB"/>
<path d="M280.836 397.928H53.3656C49.6585 397.928 46.6416 394.912 46.6416 391.204V71.4574C46.6416 67.7503 49.6585 64.7334 53.3656 64.7334H280.836C284.542 64.7334 287.559 67.7503 287.559 71.4574V391.204C287.559 394.912 284.542 397.928 280.836 397.928ZM53.3656 65.0291C49.8198 65.0291 46.9361 67.9128 46.9361 71.4586V391.206C46.9361 394.751 49.8198 397.635 53.3656 397.635H280.836C284.381 397.635 287.265 394.751 287.265 391.206V71.4574C287.265 67.9128 284.381 65.0279 280.836 65.0279L53.3656 65.0291Z" fill="#EBEBEB"/>
<path d="M535.634 397.928H308.163C304.457 397.928 301.44 394.912 301.44 391.204V71.4574C301.44 67.7503 304.457 64.7334 308.163 64.7334H535.634C539.342 64.7334 542.358 67.7503 542.358 71.4574V391.204C542.358 394.912 539.341 397.928 535.634 397.928ZM308.163 65.0291C304.619 65.0291 301.735 67.9128 301.735 71.4586V391.206C301.735 394.751 304.619 397.635 308.163 397.635H535.634C539.18 397.635 542.063 394.751 542.063 391.206V71.4574C542.063 67.9128 539.18 65.0279 535.634 65.0279L308.163 65.0291Z" fill="#EBEBEB"/>
<path d="M589 450.465H0V450.759H589V450.465Z" fill="#EBEBEB"/>
<path d="M486.34 415.635C486.34 415.635 485.55 375.324 497.406 350.424C509.263 325.526 520.329 304.975 527.837 296.676C527.837 296.676 505.705 352.796 502.543 368.999C499.382 385.202 491.477 415.634 491.477 415.634H486.34V415.635Z" fill="#F5F5F5"/>
<path d="M488.119 413.856C488.119 413.856 489.107 370.58 497.604 353.982C506.101 337.383 519.737 311.496 519.737 311.496C519.737 311.496 504.126 349.436 500.766 365.443C497.406 381.448 489.898 413.856 489.898 413.856H488.119Z" fill="#E6E6E6"/>
<path d="M480.341 417.434C480.341 417.434 481.132 377.122 469.275 352.223C457.418 327.325 446.352 306.773 438.844 298.474C438.844 298.474 460.976 354.594 464.138 370.798C467.3 387.001 475.204 417.432 475.204 417.432H480.341V417.434Z" fill="#F0F0F0"/>
<path d="M478.564 415.656C478.564 415.656 477.575 372.38 469.079 355.782C460.582 339.182 446.946 313.296 446.946 313.296C446.946 313.296 462.557 351.236 465.917 367.242C469.276 383.248 476.785 415.656 476.785 415.656H478.564Z" fill="#E0E0E0"/>
<path d="M479.039 416.523C479.039 416.523 490.506 377.868 485.688 350.715C480.869 323.562 475.658 300.811 470.622 290.815C470.622 290.815 477.056 350.798 475.801 367.259C474.546 383.721 474.084 415.158 474.084 415.158L479.039 416.523Z" fill="#EBEBEB"/>
<path d="M477.796 414.337C477.796 414.337 488.336 372.353 484.552 354.093C480.769 335.834 474.498 307.255 474.498 307.255C474.498 307.255 479.473 347.979 478.461 364.302C477.449 380.626 476.082 413.864 476.082 413.864L477.796 414.337Z" fill="#FAFAFA"/>
<path d="M482.925 418.417C482.925 418.417 474.814 378.923 481.943 352.282C489.073 325.642 496.215 303.421 502.09 293.895C502.09 293.895 490.536 353.104 490.376 369.613C490.214 386.121 487.978 417.483 487.978 417.483L482.925 418.417Z" fill="#F5F5F5"/>
<path d="M484.349 416.345C484.349 416.345 477.448 373.612 482.784 355.744C488.119 337.876 496.817 309.941 496.817 309.941C496.817 309.941 488.368 350.089 487.977 366.438C487.586 382.789 486.097 416.021 486.097 416.021L484.349 416.345Z" fill="#E6E6E6"/>
<path d="M488.306 451.154H475.869C470.975 451.154 466.925 447.345 466.624 442.46L464.32 413.307H499.856L497.55 442.46C497.249 447.346 493.199 451.154 488.306 451.154Z" fill="#EBEBEB"/>
<path d="M121.041 380.872C121.187 381.036 120.38 382.162 123.665 381.669C131.757 380.452 145.849 377.174 149.773 368.847C155.376 356.958 138.005 361.299 138.605 355.222C139.204 349.146 158.969 350.204 161.068 341.29C163.168 332.376 149.759 336.621 149.582 332.277C149.404 327.933 164.85 330.629 167.917 321.012C170.983 311.395 159.309 318.474 160.651 314.477C161.993 310.478 175.06 292.391 167.949 290.292C160.838 288.192 148.86 306.752 144.239 309.383C139.618 312.013 135.51 296.864 130 303.26C124.491 309.656 133.229 332.034 126.201 336.376C120.968 339.609 122.446 330.701 115.538 332.363C106.155 334.623 109.312 367.753 121.041 380.872Z" fill="#E6E6E6"/>
<path d="M146.019 332.327C142.835 332.593 140.485 333.241 139.026 333.764C141.878 329.587 143.928 327.444 144.001 327.37C144.234 327.133 144.23 326.755 143.994 326.522C143.759 326.29 143.379 326.293 143.147 326.527C143.09 326.585 138.36 331.459 133.18 340.989C130.636 325.653 137.058 312.249 137.125 312.111C137.235 311.888 137.142 311.619 136.919 311.509C136.698 311.398 136.427 311.493 136.319 311.715C136.248 311.859 129.392 326.165 132.499 342.256C131.672 343.835 130.838 345.523 130.014 347.336C127.634 352.573 125.145 359.286 123.177 367.378C121.81 364.91 118.68 358.3 118.4 349.074C118.393 348.826 118.186 348.631 117.937 348.639C117.685 348.656 117.494 348.854 117.501 349.103C117.825 359.779 121.916 367.081 122.866 368.637C120.261 379.864 118.7 393.682 119.822 409.958C119.844 410.289 120.13 410.538 120.461 410.515C120.487 410.514 120.512 410.511 120.536 410.506C120.828 410.448 121.039 410.182 121.019 409.877C119.533 388.324 122.757 371.001 127.216 357.883C128.348 356.575 131.694 353.215 136.785 352.425C137.016 352.369 137.198 352.155 137.16 351.91C137.121 351.666 136.891 351.498 136.646 351.535C132.62 352.174 129.67 354.261 127.918 355.873C131.21 346.76 135.039 339.832 138.142 335.089C139.142 334.638 141.875 333.577 146.095 333.223C146.339 333.193 146.526 332.985 146.505 332.737C146.485 332.489 146.268 332.307 146.019 332.327Z" fill="#F5F5F5"/>
<path d="M110.671 385.463C103.946 385.59 92.4588 379.346 87.9495 373.269C83.3741 367.104 96.2461 370.929 94.9244 366.088C93.6027 361.247 77.7315 364.825 74.803 357.891C71.8745 350.956 83.3246 352.55 82.8699 349.005C82.4152 345.46 70.5527 346.181 66.7443 338.809C62.9358 331.437 73.3705 335.568 71.7331 332.513C70.0957 329.458 57.0163 316.599 62.4893 313.919C67.9623 311.239 80.2229 324.631 84.3306 326.126C88.4383 327.621 89.3984 318.37 94.743 322.794C100.088 327.22 96.0871 346.556 102.38 349.107C107.066 351.008 105.073 342.154 110.468 344.388C119.913 348.301 113.4 385.411 110.671 385.463Z" fill="#E0E0E0"/>
<g opacity="0.3">
<path d="M110.671 385.463C103.946 385.59 92.4588 379.346 87.9495 373.269C83.3741 367.104 96.2461 370.929 94.9244 366.088C93.6027 361.247 77.7315 364.825 74.803 357.891C71.8745 350.956 83.3246 352.55 82.8699 349.005C82.4152 345.46 70.5527 346.181 66.7443 338.809C62.9358 331.437 73.3705 335.568 71.7331 332.513C70.0957 329.458 57.0163 316.599 62.4893 313.919C67.9623 311.239 80.2229 324.631 84.3306 326.126C88.4383 327.621 89.3984 318.37 94.743 322.794C100.088 327.22 96.0871 346.556 102.38 349.107C107.066 351.008 105.073 342.154 110.468 344.388C119.913 348.301 113.4 385.411 110.671 385.463Z" fill="#E0E0E0"/>
</g>
<path d="M108.45 377.391C108.546 377.353 108.635 377.294 108.688 377.194C108.846 376.895 112.53 369.765 111.705 359.166C111.685 358.919 111.476 358.737 111.22 358.753C110.973 358.773 110.788 358.988 110.807 359.237C111.505 368.186 108.834 374.736 108.085 376.371C105.074 368.198 101.467 360.929 97.843 354.706C99.0328 340.265 91.6326 328.442 91.5572 328.323C91.4241 328.113 91.1461 328.052 90.9364 328.185C90.7267 328.318 90.6643 328.596 90.7986 328.806C90.8704 328.918 97.6663 339.789 97.0326 353.314C88.4131 338.878 79.9999 330.489 79.8314 330.324C79.5958 330.093 79.2153 330.094 78.9832 330.334C78.7512 330.569 78.7547 330.95 78.9915 331.182C79.1328 331.32 85.1147 337.297 92.1168 347.777C88.0138 346.252 83.5621 345.458 79.4026 345.538C79.1541 345.543 78.9573 345.748 78.962 345.997C78.9667 346.242 79.167 346.438 79.412 346.438C79.4156 346.438 79.4179 346.438 79.4203 346.438C83.8743 346.358 88.6676 347.29 92.9814 349.079C95.3892 352.77 97.889 356.989 100.299 361.664C97.9867 360.1 93.4974 357.936 87.7535 359.455C87.5131 359.518 87.3694 359.763 87.433 360.004C87.4966 360.244 87.7417 360.391 87.9832 360.323C95.2691 358.402 100.403 362.756 101.244 363.53C107.838 376.809 113.526 393.597 114.28 412.835C114.293 413.158 114.558 413.411 114.878 413.411C114.886 413.411 114.893 413.411 114.902 413.411C115.233 413.398 115.489 413.119 115.478 412.788C114.969 399.77 112.211 387.871 108.45 377.391Z" fill="#F5F5F5"/>
<path d="M129.583 451.154C136.002 439.084 140.22 421.643 140.22 413.999C140.22 407.537 137.19 401.739 132.381 397.679H99.5103C94.7017 401.739 91.6719 407.539 91.6719 413.999C91.6719 421.644 95.8891 439.084 102.308 451.154H129.583Z" fill="#E0E0E0"/>
<path d="M162.696 68.5312H161.349V108.476H162.696V68.5312Z" fill="#E6E6E6"/>
<path d="M119.34 130.673L162.022 104.878L204.705 130.673H119.34Z" fill="#EBEBEB"/>
<path d="M164.969 130.673L162.022 104.878L181.209 130.673H164.969Z" fill="#F5F5F5"/>
<path d="M427.651 68.5312H426.304V108.476H427.651V68.5312Z" fill="#E6E6E6"/>
<path d="M384.295 130.673L426.977 104.878L469.66 130.673H384.295Z" fill="#F0F0F0"/>
<path d="M429.924 130.673L426.978 104.878L446.165 130.673H429.924Z" fill="#FAFAFA"/>
<path d="M288.819 499.135C414.962 499.135 517.22 493.163 517.22 485.796C517.22 478.43 414.962 472.458 288.819 472.458C162.677 472.458 60.418 478.43 60.418 485.796C60.418 493.163 162.677 499.135 288.819 499.135Z" fill="#F5F5F5"/>
<path d="M219.247 161.578C219.123 160.066 217.859 158.902 216.342 158.902C214.825 158.902 213.561 160.066 213.437 161.578L213.131 165.324H219.553L219.247 161.578ZM216.343 163.531C215.56 163.531 214.925 162.896 214.925 162.113C214.925 161.33 215.56 160.695 216.343 160.695C217.127 160.695 217.762 161.33 217.762 162.113C217.762 162.895 217.127 163.531 216.343 163.531Z" fill="#407BFF"/>
<path d="M367.012 161.578C366.888 160.066 365.624 158.902 364.107 158.902C362.589 158.902 361.325 160.066 361.202 161.578L360.896 165.324H367.318L367.012 161.578ZM364.108 163.531C363.325 163.531 362.69 162.896 362.69 162.113C362.69 161.33 363.325 160.695 364.108 160.695C364.891 160.695 365.526 161.33 365.526 162.113C365.526 162.895 364.891 163.531 364.108 163.531Z" fill="#407BFF"/>
<path d="M392.126 164.726H186.797V291.948H392.126V164.726Z" fill="#263238"/>
<path opacity="0.6" d="M392.126 164.726H186.797V291.948H392.126V164.726Z" fill="white"/>
<path opacity="0.9" d="M386.871 169.981H192.052V286.694H386.871V169.981Z" fill="white"/>
<path d="M394.547 288.457H184.377V294.554H394.547V288.457Z" fill="#263238"/>
<path opacity="0.7" d="M394.547 288.457H184.377V294.554H394.547V288.457Z" fill="white"/>
<path opacity="0.2" d="M226.734 190.986H211.753V210.67H226.734V190.986Z" fill="#263238"/>
<path d="M232.454 210.669C227.35 200.903 228.92 190.985 228.92 190.985H211.982C211.982 190.985 210.411 200.902 215.516 210.669H232.454Z" fill="#407BFF"/>
<path opacity="0.5" d="M232.454 210.669C227.35 200.903 228.92 190.985 228.92 190.985H211.982C211.982 190.985 210.411 200.902 215.516 210.669H232.454Z" fill="white"/>
<path opacity="0.2" d="M370.582 190.986H355.602V210.67H370.582V190.986Z" fill="#263238"/>
<path d="M376.302 210.669C371.198 200.903 372.768 190.985 372.768 190.985H355.829C355.829 190.985 354.259 200.902 359.363 210.669H376.302Z" fill="#407BFF"/>
<path opacity="0.2" d="M376.302 210.669C371.198 200.903 372.768 190.985 372.768 190.985H355.829C355.829 190.985 354.259 200.902 359.363 210.669H376.302Z" fill="white"/>
<path opacity="0.2" d="M261.85 191.334H246.869V211.018H261.85V191.334Z" fill="#263238"/>
<path d="M267.569 211.018C262.465 201.252 264.035 191.333 264.035 191.333H247.098C247.098 191.333 245.528 201.251 250.632 211.018H267.569Z" fill="#407BFF"/>
<path opacity="0.8" d="M267.569 211.018C262.465 201.252 264.035 191.333 264.035 191.333H247.098C247.098 191.333 245.528 201.251 250.632 211.018H267.569Z" fill="white"/>
<path opacity="0.2" d="M339.994 190.986H325.014V210.67H339.994V190.986Z" fill="#263238"/>
<path d="M345.714 210.669C340.61 200.904 342.18 190.985 342.18 190.985H325.242C325.242 190.985 323.671 200.902 328.776 210.669H345.714Z" fill="#407BFF"/>
<path opacity="0.6" d="M345.714 210.669C340.61 200.904 342.18 190.985 342.18 190.985H325.242C325.242 190.985 323.671 200.902 328.776 210.669H345.714Z" fill="white"/>
<path d="M317.435 207.777C315.926 198.659 320.958 190.184 330.067 187.785C339.304 185.353 350.172 190.623 351.076 200.793C352.735 219.458 323.958 224.145 319.513 206.504C319.331 205.777 318.206 206.084 318.39 206.813C320.636 215.729 328.181 219.263 337.072 218.725C346.497 218.155 353.52 209.221 352.181 199.869C350.725 189.702 339.907 184.388 330.464 186.504C320.324 188.776 314.654 198.08 316.31 208.088C316.433 208.825 317.557 208.512 317.435 207.777Z" fill="#407BFF"/>
<path d="M210.825 223.6C225.508 220.053 240.807 218.497 255.873 218.059C256.667 218.035 256.671 216.798 255.873 216.822C240.715 217.262 225.273 218.837 210.497 222.408C209.723 222.595 210.05 223.787 210.825 223.6Z" fill="#407BFF"/>
<path d="M221.786 225.693C230.579 223.581 239.704 222.667 248.722 222.381C249.516 222.356 249.52 221.118 248.722 221.144C239.606 221.433 230.348 222.365 221.458 224.501C220.684 224.687 221.011 225.879 221.786 225.693Z" fill="#407BFF"/>
<path d="M443.786 205.805C443.67 206.372 443.277 206.77 442.907 206.694C442.537 206.619 442.33 206.098 442.445 205.532C442.56 204.965 442.954 204.567 443.324 204.642C443.695 204.719 443.901 205.238 443.786 205.805Z" fill="#263238"/>
<path d="M443.331 206.78C443.331 206.78 441.377 209.788 439.639 211.076C440.45 212.216 442.242 212.134 442.242 212.134L443.331 206.78Z" fill="#A02724"/>
<path d="M446.501 203.08C446.584 203.08 446.668 203.051 446.732 202.989C446.87 202.862 446.878 202.647 446.751 202.51C445.477 201.13 443.929 201.375 443.863 201.386C443.678 201.418 443.554 201.593 443.585 201.777C443.617 201.962 443.794 202.085 443.975 202.055C444.025 202.047 445.235 201.869 446.253 202.97C446.319 203.044 446.41 203.08 446.501 203.08Z" fill="#263238"/>
<path d="M459.928 213.775C458.9 219.02 457.874 228.63 461.543 232.129C461.543 232.129 460.11 237.448 450.364 237.448C439.648 237.448 445.243 232.129 445.243 232.129C451.092 230.732 450.94 226.393 449.922 222.318L459.928 213.775Z" fill="#B55B52"/>
<path d="M462.931 208.446C461.089 215.318 460.361 219.434 456.12 222.292C449.741 226.591 441.798 221.657 441.55 214.374C441.327 207.817 444.377 197.68 451.751 196.295C459.017 194.93 464.772 201.574 462.931 208.446Z" fill="#B55B52"/>
<path d="M448.286 211.301C448.286 211.301 449.816 220.715 459.093 220.426C459.093 220.426 470.29 214.127 469.129 202.221C469.129 202.221 472.699 197.572 470.542 195.646C469.167 194.418 467.543 197.056 467.543 197.056C467.543 197.056 468.329 190.232 465.531 189.496C462.733 188.759 462.452 193.134 462.452 193.134C462.452 193.134 461.805 186.235 458.928 185.865C455.603 185.437 456.573 190.334 456.573 190.334C456.573 190.334 455.481 184.58 452.235 184.596C449.523 184.61 450.835 190.055 450.835 190.055C450.835 190.055 448.266 184.251 445.804 185.585C443.341 186.918 446.497 191.174 446.497 191.174C446.497 191.174 441.804 187.866 440.846 190.149C439.888 192.432 444.677 195.234 444.677 195.234C444.677 195.234 440.091 195.762 440.46 197.971C440.828 200.18 446.216 199.853 446.216 199.853C446.216 199.853 444.13 204.86 448.768 207.216L448.286 211.301Z" fill="#263238"/>
<path d="M451.238 208.733C450.771 210.537 449.586 212.088 448.345 213.011C446.479 214.398 445.086 213.033 445.219 210.921C445.338 209.021 446.452 206.009 448.51 205.446C450.539 204.892 451.773 206.671 451.238 208.733Z" fill="#B55B52"/>
<path opacity="0.2" d="M447.859 221.23C446.196 220.936 445.412 221.314 442.95 219.133C444.526 221.78 447.255 223.567 450.242 223.841C450.155 223.579 449.423 221.505 447.859 221.23Z" fill="black"/>
<path d="M478.477 238.722C480.332 242.375 482.006 245.989 483.605 249.704C485.197 253.408 486.685 257.169 488.05 261.006C488.75 262.915 489.372 264.87 489.982 266.839L490.096 267.208L490.154 267.394L490.237 267.711C490.339 268.138 490.451 268.551 490.499 269C490.632 269.874 490.644 270.787 490.529 271.656C490.323 273.415 489.677 274.964 488.902 276.199C487.306 278.672 485.348 280.191 483.4 281.409C482.411 282.003 481.423 282.533 480.397 282.96C479.358 283.402 478.4 283.777 477.227 284.104L474.996 279.351C476.315 278.248 477.753 276.958 478.874 275.707C480.019 274.465 480.936 273.122 481.245 272.098C481.418 271.593 481.424 271.219 481.343 270.993C481.31 270.874 481.264 270.787 481.21 270.688C481.2 270.642 481.143 270.585 481.119 270.532L481.033 270.326L480.9 269.993C480.199 268.216 479.449 266.446 478.69 264.666C477.161 261.113 475.553 257.564 473.913 254.019L468.979 243.424L478.477 238.722Z" fill="#B55B52"/>
<path d="M477.412 278.74L472.285 277.406L471.991 285.685C471.991 285.685 476.002 286.281 478.458 283.827L477.412 278.74Z" fill="#B55B52"/>
<path d="M465.019 276.011L466.175 283.279L471.99 285.685L472.284 277.406L465.019 276.011Z" fill="#FFC3BD"/>
<path d="M433.808 235.208C431.79 235.188 429.491 235.155 427.326 235.048C425.132 234.926 422.944 234.798 420.773 234.595C418.611 234.388 416.45 234.152 414.355 233.798C413.287 233.66 412.279 233.421 411.235 233.241C410.239 232.994 409.197 232.792 408.24 232.505L406.784 232.097L405.406 231.613L405.008 231.474C404.929 231.243 404.852 230.974 404.802 230.668C404.665 229.886 404.565 228.943 404.545 227.955C404.474 223.965 405.553 216.701 406.153 212.345L401.639 211.4C399.425 215.834 396.692 223.02 395.811 228.247C395.611 229.562 395.451 230.936 395.493 232.458C395.551 233.979 395.684 235.672 396.599 237.748C397.072 238.774 397.326 238.9 398.461 239.856C399.002 240.331 399.7 240.755 400.299 241.049L401.212 241.468C401.821 241.741 402.434 242.031 403.045 242.286L404.877 242.977C409.776 244.733 414.64 245.627 419.493 246.287C421.918 246.561 424.338 246.81 426.76 246.908C429.211 247.009 431.534 247.091 434.137 246.985L433.808 235.208Z" fill="#B55B52"/>
<path d="M406.047 212.79L409.884 204.687L402.354 202.506C402.354 202.506 398.876 207.794 401.899 212.051L406.047 212.79Z" fill="#B55B52"/>
<path d="M409.42 201.035L403.586 198.03L402.354 202.506L409.883 204.687L409.42 201.035Z" fill="#B55B52"/>
<path d="M444.556 232.679C444.556 232.679 446.258 230.913 445.042 228.894C445.042 228.894 469.89 226.836 463.411 233.408L444.556 232.679Z" fill="#407BFF"/>
<path opacity="0.3" d="M444.556 232.679C444.556 232.679 446.258 230.913 445.042 228.894C445.042 228.894 469.89 226.836 463.411 233.408L444.556 232.679Z" fill="white"/>
<path d="M472.329 262.964C472.329 262.964 480.908 259.312 486.442 252.443C486.442 252.443 481.093 235.376 475.005 234.261C468.917 233.145 472.329 262.964 472.329 262.964Z" fill="#407BFF"/>
<path opacity="0.5" d="M472.329 262.964C472.329 262.964 480.908 259.312 486.442 252.443C486.442 252.443 481.093 235.376 475.005 234.261C468.917 233.145 472.329 262.964 472.329 262.964Z" fill="white"/>
<path opacity="0.2" d="M471.381 246.374C471.331 254.217 472.329 262.964 472.329 262.964C472.329 262.964 474.148 262.184 476.64 260.686C475.412 255.389 473.052 249.892 471.381 246.374Z" fill="black"/>
<path d="M476.613 234.977C471.77 258.635 472.444 279.892 473.13 292.646C473.351 296.766 470.372 300.431 466.363 301.011C456.127 302.493 445.587 301.494 439.287 300.579C435.866 300.081 433.126 297.331 432.583 293.837C426.951 257.593 429.832 243.122 431.683 236.064C432.324 233.621 434.531 231.928 437.057 231.925C446.997 231.907 472.669 232.141 476.613 234.977Z" fill="#407BFF"/>
<path opacity="0.5" d="M476.613 234.977C471.77 258.635 472.444 279.892 473.13 292.646C473.351 296.766 470.372 300.431 466.363 301.011C456.127 302.493 445.587 301.494 439.287 300.579C435.866 300.081 433.126 297.331 432.583 293.837C426.951 257.593 429.832 243.122 431.683 236.064C432.324 233.621 434.531 231.928 437.057 231.925C446.997 231.907 472.669 232.141 476.613 234.977Z" fill="white"/>
<path opacity="0.2" d="M430.82 239.909C429.902 244.627 429.147 250.448 429.252 260.945C436.553 257.655 438.308 246.374 438.308 246.374L435.028 238.906L430.82 239.909Z" fill="black"/>
<path d="M436.668 231.947C433.341 230.091 417.939 234.303 417.939 234.303V251.719C417.939 251.719 433.37 255.608 436.61 250.297C439.85 244.985 440.746 234.223 436.668 231.947Z" fill="#407BFF"/>
<path opacity="0.5" d="M436.668 231.947C433.341 230.091 417.939 234.303 417.939 234.303V251.719C417.939 251.719 433.37 255.608 436.61 250.297C439.85 244.985 440.746 234.223 436.668 231.947Z" fill="white"/>
<path d="M452.327 478.44H445.157L444.443 461.839H451.613L452.327 478.44Z" fill="#B55B52"/>
<path d="M504.946 475.122L497.939 476.638L490.904 461.175L497.911 459.658L504.946 475.122Z" fill="#B55B52"/>
<path opacity="0.2" d="M444.446 461.843L444.813 470.4H451.984L451.618 461.843H444.446Z" fill="black"/>
<path opacity="0.2" d="M497.915 459.661L490.904 461.179L494.535 469.149L501.544 467.632L497.915 459.661Z" fill="black"/>
<path d="M447.196 296.085C447.196 296.085 457.571 364.976 462.038 385.502C466.929 407.978 490.917 468.238 490.917 468.238L503.75 465.459C503.75 465.459 496.851 445.475 489.961 415.175C487.664 405.074 483.393 395.395 482.367 387.539C480.648 374.379 478.486 338.473 476.769 321.363C475.336 307.091 471.939 296.083 471.939 296.083H447.196V296.085Z" fill="#263238"/>
<path d="M487.846 463.953C487.791 463.965 490.237 468.594 490.237 468.594L504.676 465.468L503.459 461.127L487.846 463.953Z" fill="#263238"/>
<path opacity="0.5" d="M452.34 315.604C461.747 317.449 462.991 366.636 461.859 384.679C459.146 371.925 452.936 333.277 450.223 315.858C450.847 315.546 451.549 315.448 452.34 315.604Z" fill="black"/>
<path d="M433.596 296.084C433.596 296.084 434.848 363.79 435.628 385.653C436.439 408.393 442.142 468.744 442.142 468.744H454.287C454.287 468.744 457.913 448.534 458.218 419.738C458.358 406.497 456.164 394.423 456.333 387.388C456.623 375.43 457.555 342.491 459.508 326.419C461.532 309.769 461.157 296.084 461.157 296.084H433.596Z" fill="#263238"/>
<path d="M439.805 463.906C439.748 463.906 440.49 468.948 440.49 468.948H455.264L455.663 464.448L439.805 463.906Z" fill="#263238"/>
<path d="M445.337 475.646L453.587 475.635C453.944 475.641 454.205 475.894 454.216 476.245L455.653 484.176C455.678 484.863 455.119 485.538 454.407 485.684C454.315 485.702 454.224 485.712 454.133 485.711C450.731 485.593 447.732 485.353 443.481 485.287C438.465 485.202 439.622 485.826 433.708 485.808C430.146 485.794 430.279 481.733 431.824 481.559C438.888 480.807 440.008 478.731 443.146 476.301C443.816 475.835 444.596 475.602 445.337 475.646Z" fill="#263238"/>
<path d="M496.609 473.336L504.671 471.589C505.021 471.519 505.331 471.712 505.414 472.053L508.489 479.503C508.657 480.169 508.254 480.947 507.588 481.239C507.502 481.277 507.414 481.305 507.326 481.324C503.975 481.925 500.993 482.322 496.823 483.151C491.902 484.124 493.163 484.49 487.38 485.719C483.896 486.455 483.17 482.456 484.644 481.961C491.39 479.738 492.047 477.474 494.605 474.437C495.162 473.841 495.875 473.449 496.609 473.336Z" fill="#263238"/>
<path d="M340.325 268.353L345.133 262.833C345.133 262.833 345.976 259.142 346.519 258.011C347.086 256.832 348.304 254.17 349.54 253.741C350.873 253.278 354.041 254.263 354.957 255.337C356.156 256.744 356.722 261.014 355.898 262.668C355.023 264.427 349.075 266.566 349.075 266.566L344.399 272.399L340.325 268.353Z" fill="#FFB573"/>
<path d="M339.287 268.017L343.488 263.438L349.108 268.226L344.553 273.603L339.287 268.017Z" fill="#407BFF"/>
<path opacity="0.8" d="M339.287 268.017L343.488 263.438L349.108 268.226L344.553 273.603L339.287 268.017Z" fill="white"/>
<path d="M309.185 241.153C309.185 241.153 313.568 246.141 319.901 262.447C326.234 278.752 333.253 273.997 340.959 265.205L347.291 270.971C347.291 270.971 335.452 285.722 328.001 285.722C319.706 285.722 311.656 272.864 310.037 263.881C308.417 254.899 309.185 241.153 309.185 241.153Z" fill="#263238"/>
<path opacity="0.4" d="M310.736 250.586L308.38 248.617L307.278 254.89C307.434 256.71 307.647 258.484 307.938 260.102C308.862 265.224 312.331 271.94 316.057 277.53C314.696 265.112 310.736 250.586 310.736 250.586Z" fill="black"/>
<path d="M277.2 202.92C277.2 202.92 273.853 202.869 274.293 205.497C274.849 208.823 286.182 207.845 286.182 207.845L283.163 203.878L277.2 202.92Z" fill="#263238"/>
<path d="M323.936 460.839L325.084 476.279H318.225L314.854 461.387L323.936 460.839Z" fill="#FFB573"/>
<path d="M325.735 475.435L317.314 475.424C316.95 475.43 316.683 475.689 316.672 476.046L315.206 484.14C315.181 484.841 315.75 485.53 316.477 485.679C316.57 485.697 316.664 485.707 316.756 485.707C320.229 485.587 323.29 485.342 327.629 485.273C332.749 485.187 331.568 485.823 337.603 485.807C341.238 485.793 341.103 481.647 339.526 481.47C332.316 480.701 331.174 478.582 327.969 476.103C327.286 475.629 326.491 475.391 325.735 475.435Z" fill="#263238"/>
<path d="M326.494 473.007L315.716 473.532C315.716 473.532 304.85 434.883 302.837 411.388C302.699 409.775 302.599 408.225 302.549 406.749C302.337 399.897 301.611 393.057 300.173 386.356L299.674 384.017L293.747 356.346V356.333L292.622 351.057C292.622 351.057 285.895 339.79 286.146 322.661C286.208 318.323 286.72 313.583 287.908 308.569C287.946 308.444 287.97 308.319 287.995 308.181L313.865 308.932L314.853 321.723L326.494 473.007Z" fill="#407BFF"/>
<path opacity="0.2" d="M296.35 368.473C299.926 350.501 298.137 329.179 298.137 329.179L292.844 331.301L289.273 341.222C289.273 341.222 289.284 342.017 289.312 343.34C290.957 348.258 292.625 351.06 292.625 351.06L296.35 368.473Z" fill="black"/>
<path d="M274.667 460.839L272.414 476.279H265.555L265.585 461.387L274.667 460.839Z" fill="#FFB573"/>
<path d="M272.989 475.435L264.568 475.424C264.204 475.43 263.937 475.689 263.926 476.046L262.46 484.14C262.435 484.841 263.004 485.53 263.732 485.679C263.825 485.697 263.919 485.707 264.011 485.707C267.484 485.587 270.546 485.342 274.884 485.273C280.004 485.187 278.823 485.823 284.858 485.807C288.494 485.793 288.358 481.647 286.781 481.47C279.571 480.701 278.429 478.582 275.226 476.103C274.541 475.629 273.745 475.391 272.989 475.435Z" fill="#263238"/>
<path d="M303.763 308.931L301.774 318.321L293.746 356.346L292.434 362.586L274.541 473.271L263.8 472.808C263.8 472.808 261.437 437.121 264.664 413.365C264.914 411.489 265.214 409.688 265.539 407.988C267.065 400.049 267.927 392.009 267.84 383.931L267.815 381.606L267.49 351.059C267.49 351.059 266.065 336.217 268.666 320.187C269.316 316.186 270.204 312.123 271.441 308.183L287.908 308.571L303.763 308.931Z" fill="#407BFF"/>
<path opacity="0.2" d="M315.427 329.909L305.874 330.749C303.249 331.286 300.648 329.687 299.935 327.086L299.623 325.948L297.623 318.558L295.247 327.123C294.521 329.749 291.971 331.424 289.269 331.037L283.993 330.286L267.666 328.02C267.981 320.882 270.203 312.119 271.442 308.18L287.909 308.567C287.946 308.443 287.971 308.318 287.996 308.18L313.866 308.93L315.427 329.909Z" fill="black"/>
<path d="M270.813 289.707L266.367 323.673L289.449 327.201C291.985 327.562 294.395 325.983 295.08 323.514L297.316 315.439L299.497 323.482C300.16 325.928 302.61 327.437 305.092 326.929L316.301 325L313.362 285.647C313.362 285.647 315.042 260.455 311.104 244.323C310.355 241.252 307.555 239.113 304.479 238.379C297.482 236.709 282.45 234.61 265.382 241.342C263.797 241.967 262.823 243.584 263.033 245.277L270.813 289.707Z" fill="#263238"/>
<path opacity="0.5" d="M295.685 276.354C296.259 276.354 296.725 275.888 296.725 275.314C296.725 274.739 296.259 274.274 295.685 274.274C295.11 274.274 294.645 274.739 294.645 275.314C294.645 275.888 295.11 276.354 295.685 276.354Z" fill="black"/>
<path opacity="0.5" d="M296.707 290.747C297.282 290.747 297.747 290.281 297.747 289.707C297.747 289.132 297.282 288.667 296.707 288.667C296.133 288.667 295.667 289.132 295.667 289.707C295.667 290.281 296.133 290.747 296.707 290.747Z" fill="black"/>
<path opacity="0.5" d="M297.126 304.962C297.701 304.962 298.166 304.496 298.166 303.922C298.166 303.347 297.701 302.881 297.126 302.881C296.552 302.881 296.086 303.347 296.086 303.922C296.086 304.496 296.552 304.962 297.126 304.962Z" fill="black"/>
<path d="M279.999 236.267C279.999 236.267 285.525 233.869 292.443 235.402L294.997 236.857L295.894 239.702L292.659 242.237L285.021 243.014L278.708 240.403L279.059 237.597L279.999 236.267Z" fill="#263238"/>
<path d="M279.371 237.736C281.064 235.493 281.838 233.23 281.247 230.506L292.68 221.241C291.066 236.701 291.857 233.888 294.159 238.333C294.159 238.333 292.564 243.487 283.642 241.884C277.848 240.845 279.371 237.736 279.371 237.736Z" fill="#FFB573"/>
<path opacity="0.2" d="M281.245 230.506L292.679 221.241C292.384 223.484 292.154 225.351 291.995 226.972C290.783 229.434 287.672 233.921 281.206 234.107C281.49 232.979 281.525 231.795 281.245 230.506Z" fill="black"/>
<path d="M294.602 213.932C292.989 221.319 292.411 225.719 288.049 228.952C281.495 233.831 272.822 228.961 272.209 221.264C271.654 214.283 274.399 203.411 282.156 201.584C287.686 200.25 293.25 203.654 294.584 209.184C294.959 210.743 294.965 212.369 294.602 213.932Z" fill="#FFB573"/>
<path d="M282.604 214.269C282.507 214.879 282.113 215.323 281.714 215.258C281.316 215.193 281.075 214.655 281.17 214.045C281.267 213.435 281.661 213 282.06 213.064C282.459 213.128 282.7 213.667 282.604 214.269Z" fill="#263238"/>
<path d="M275.748 213.203C275.651 213.805 275.256 214.249 274.858 214.184C274.46 214.119 274.219 213.581 274.315 212.979C274.412 212.377 274.806 211.925 275.205 211.989C275.602 212.054 275.843 212.592 275.748 213.203Z" fill="#263238"/>
<path d="M278.256 213.829C277.242 215.569 275.992 217.162 274.542 218.56C275.487 219.732 277.362 219.563 277.362 219.563L278.256 213.829Z" fill="#ED893E"/>
<path d="M285.405 211.791C285.466 211.801 285.528 211.797 285.588 211.781C285.758 211.681 285.823 211.466 285.736 211.29C285.204 210.258 284.211 209.544 283.064 209.367C282.865 209.349 282.688 209.498 282.67 209.697C282.653 209.896 282.8 210.073 283 210.089C283.906 210.238 284.687 210.811 285.097 211.634C285.167 211.736 285.282 211.795 285.405 211.791Z" fill="#263238"/>
<path d="M273.511 210.02C273.633 210.024 273.75 209.964 273.817 209.862C274.315 209.098 275.146 208.618 276.056 208.566C276.256 208.572 276.421 208.415 276.426 208.216C276.432 208.017 276.274 207.852 276.077 207.846C274.913 207.886 273.84 208.488 273.199 209.46C273.087 209.617 273.123 209.836 273.28 209.948C273.282 209.95 273.286 209.952 273.288 209.954C273.353 210.001 273.432 210.024 273.511 210.02Z" fill="#263238"/>
<path d="M275.019 222.007C275.019 222.007 276.971 221.661 282.366 221.807C281.654 223.257 280.401 224.415 277.633 224.322C274.866 224.229 275.019 222.007 275.019 222.007Z" fill="#263238"/>
<path d="M278.984 223.206C277.927 223.117 276.866 223.333 275.929 223.831C276.438 224.156 277.03 224.324 277.633 224.316C278.689 224.407 279.748 224.19 280.682 223.693C280.177 223.366 279.585 223.198 278.984 223.206Z" fill="#FF5652"/>
<path d="M275.271 221.972C275.368 222.356 275.68 222.648 276.07 222.722C277.672 222.764 279.276 222.686 280.866 222.485C281.371 222.472 281.839 222.217 282.125 221.801C279.839 221.701 277.548 221.757 275.271 221.972Z" fill="white"/>
<path d="M279.352 245.899L282.391 255.798L289.456 266.009L295.253 272.037L297.424 263.198L296.725 244.752L296.615 240.78L294.991 238.495L292.414 240.755L290.218 241.602L287.004 241.629L278.561 239.062L279.352 245.899Z" fill="#407BFF"/>
<path opacity="0.8" d="M279.352 245.899L282.391 255.798L289.456 266.009L295.253 272.037L297.424 263.198L296.725 244.752L296.615 240.78L294.991 238.495L292.414 240.755L290.218 241.602L287.004 241.629L278.561 239.062L279.352 245.899Z" fill="#407BFF"/>
<path opacity="0.5" d="M279.352 245.899L282.391 255.798L289.456 266.009L295.253 272.037L297.424 263.198L296.725 244.752L296.615 240.78L294.991 238.495L292.414 240.755L290.218 241.602L287.004 241.629L278.561 239.062L279.352 245.899Z" fill="white"/>
<path d="M286.168 244.752C286.168 244.752 287.194 247.021 289.456 248.954C289.456 248.954 288.04 259.044 290.217 266.112L295.252 272.037L296.725 264.709C296.725 264.709 294.471 252.985 291.447 248.55C291.447 248.55 292.706 246.166 293.122 243.721L291.316 242.239C291.316 242.239 288.809 244.03 287.302 242.782L286.168 244.752Z" fill="#407BFF"/>
<path d="M279.152 237.181C279.152 237.181 283.811 241.152 288.493 241.152C293.174 241.152 293.692 236.268 293.692 236.268L295.666 238.401C295.666 238.401 295.979 241.871 294.056 245.522L289.172 242.226L285.862 246.991C285.862 246.991 280.685 244.498 278.147 240.028L279.152 237.181Z" fill="#407BFF"/>
<path opacity="0.8" d="M279.152 237.181C279.152 237.181 283.811 241.152 288.493 241.152C293.174 241.152 293.692 236.268 293.692 236.268L295.666 238.401C295.666 238.401 295.979 241.871 294.056 245.522L289.172 242.226L285.862 246.991C285.862 246.991 280.685 244.498 278.147 240.028L279.152 237.181Z" fill="white"/>
<path d="M280 236.267C280 236.267 276.179 248.046 294.99 270.511C294.99 270.511 298.368 242.988 292.445 235.402L296.561 237.029L300.844 243.503L297.704 245.52L301.587 247.25C301.587 247.25 301.035 256.17 295.571 273.325C295.571 273.325 283.204 263.764 275.12 250.855L278.884 247.855L273.854 247.061L276.089 238.123L280 236.267Z" fill="#263238"/>
<path opacity="0.3" d="M280 236.267C280 236.267 276.179 248.046 294.99 270.511C294.99 270.511 298.368 242.988 292.445 235.402L296.561 237.029L300.844 243.503L297.704 245.52L301.587 247.25C301.587 247.25 301.035 256.17 295.571 273.325C295.571 273.325 283.204 263.764 275.12 250.855L278.884 247.855L273.854 247.061L276.089 238.123L280 236.267Z" fill="black"/>
<path d="M290.967 220.295C290.967 220.295 287.948 221.849 289.937 215.992C291.925 210.135 289.273 208.221 288.906 205.423C288.906 205.423 271.751 206.012 272.561 198.428C273.382 190.742 283.679 196.881 283.679 196.881C283.679 196.881 282.898 193.438 285.775 193.053C289.621 192.537 293.131 199.974 297.903 202.182C302.675 204.391 300.025 211.795 300.025 211.795C300.025 211.795 301.489 216.727 292.761 226.164C292.455 226.495 291.897 226.322 291.828 225.877L290.967 220.295Z" fill="#263238"/>
<path d="M285.947 213.211C285.755 213.071 284.966 212.688 284.524 212.478C283.765 211.886 282.398 211.546 281.311 211.476C280.217 211.402 279.358 211.583 278.957 211.966C278.902 212.016 278.874 212.098 278.836 212.168C278.694 212.054 278.542 211.993 278.356 211.967C278.146 211.941 277.967 211.988 277.836 212.042C277.799 211.953 277.782 211.842 277.726 211.773C277.097 210.997 275.459 210.557 274.203 210.477C273.108 210.404 272.25 210.585 271.85 210.967C271.666 211.141 271.576 211.43 271.582 211.824C271.596 212.822 272.243 214.407 272.865 214.965C273.385 215.431 274.553 215.725 275.507 215.725C275.986 215.725 276.41 215.651 276.672 215.489C277.195 215.168 277.774 214.087 277.936 213.132C277.969 212.939 277.954 212.783 277.951 212.618C278.025 212.587 278.166 212.534 278.282 212.554C278.393 212.571 278.575 212.713 278.693 212.855C278.719 213.854 279.357 215.413 279.972 215.965C280.492 216.432 281.66 216.725 282.614 216.725C283.091 216.725 283.515 216.651 283.778 216.491V216.489C284.301 216.167 284.88 215.086 285.041 214.131C285.088 213.852 285.09 213.607 285.062 213.388C285.281 213.496 285.489 213.608 285.6 213.689C287.245 214.881 291.482 219.423 291.525 219.468L291.956 219.067C291.781 218.876 287.637 214.436 285.947 213.211ZM277.585 213.072C277.44 213.927 276.926 214.916 276.485 215.188C275.841 215.588 273.752 215.287 273.101 214.701C272.604 214.255 271.949 212.777 271.936 211.819C271.932 211.531 271.986 211.326 272.094 211.224C272.37 210.961 272.972 210.815 273.747 210.815C273.886 210.815 274.033 210.82 274.182 210.829C275.603 210.921 276.978 211.411 277.452 211.996C277.62 212.205 277.668 212.587 277.585 213.072ZM284.692 214.07C284.55 214.91 284.026 215.918 283.592 216.187C282.945 216.586 280.858 216.284 280.206 215.7C279.709 215.254 279.056 213.776 279.041 212.818C279.038 212.53 279.092 212.324 279.199 212.223C279.475 211.96 280.078 211.814 280.852 211.814C280.992 211.814 281.137 211.819 281.288 211.828C282.709 211.92 284.083 212.41 284.558 212.995C284.726 213.203 284.775 213.584 284.692 214.07Z" fill="#263238"/>
<path d="M297.161 221.453C295.91 222.881 294.147 223.757 292.254 223.895C289.738 224.041 289.004 221.674 290.144 219.573C291.165 217.691 293.711 215.334 296.021 216.164C298.331 216.993 298.68 219.673 297.161 221.453Z" fill="#FFB573"/>
<path opacity="0.4" d="M263.535 248.558L268.433 275.85L269.007 275.138C271.688 261.146 267.946 247.746 267.946 247.746L266.457 248.54L263.535 248.558Z" fill="black"/>
<path d="M232.589 269.297L226.89 264.704C226.89 264.704 225.412 261.218 224.681 260.2C223.918 259.139 222.251 256.731 220.96 256.525C219.565 256.302 216.619 257.826 215.905 259.045C214.971 260.638 215.162 264.943 216.262 266.427C217.432 268.006 223.662 269.07 223.662 269.07L229.287 273.996L232.589 269.297Z" fill="#FFB573"/>
<path d="M233.552 268.783L228.615 265.01L223.92 270.708L229.346 275.204L233.552 268.783Z" fill="#407BFF"/>
<path opacity="0.8" d="M233.552 268.783L228.615 265.01L223.92 270.708L229.346 275.204L233.552 268.783Z" fill="white"/>
<path d="M264.375 242.504C263.93 241.976 262.358 242.675 261.961 243.239C260.65 245.103 253.304 263.074 250.42 270.18C249.745 271.843 247.936 272.735 246.206 272.252C242.683 271.268 236.742 269.418 231.829 266.94L225.497 272.704C225.497 272.704 241.978 285.857 251.043 285.857C259.339 285.857 267.102 268.281 268.721 259.299C269.988 252.284 267.734 246.493 264.375 242.504Z" fill="#263238"/>
<path d="M385.124 244.641L356.654 241.974C356.654 241.974 349.091 253.822 345.875 280.787L374.45 283.464C377.335 259.967 383.655 247.464 385.124 244.641Z" fill="#407BFF"/>
<path opacity="0.4" d="M385.124 244.641L356.654 241.974C356.654 241.974 349.091 253.822 345.875 280.787L374.45 283.464C377.335 259.967 383.655 247.464 385.124 244.641Z" fill="white"/>
<path d="M385.123 244.641L356.653 241.974C356.653 241.974 350.121 252.791 346.905 279.758L375.48 282.434C378.365 258.936 383.654 247.464 385.123 244.641Z" fill="#407BFF"/>
<path opacity="0.7" d="M385.123 244.641L356.653 241.974C356.653 241.974 350.121 252.791 346.905 279.758L375.48 282.434C378.365 258.936 383.654 247.464 385.123 244.641Z" fill="white"/>
<path d="M360.401 242.216C359.967 241.589 359.099 241.432 358.473 241.866L355.682 243.799C355.055 244.233 354.899 245.101 355.332 245.727C355.766 246.354 356.634 246.511 357.26 246.077C357.368 246.003 357.394 245.864 357.318 245.756C357.244 245.649 357.104 245.623 356.997 245.698C356.578 245.988 356 245.883 355.711 245.465C355.422 245.048 355.528 244.468 355.945 244.18L358.735 242.246C359.152 241.957 359.731 242.062 360.02 242.48C360.31 242.897 360.204 243.475 359.787 243.765L358.845 244.419L358.306 244.791L358.192 244.87C357.952 245.036 357.626 244.972 357.464 244.738C357.298 244.498 357.362 244.171 357.596 244.01L358.88 243.121C358.987 243.046 359.013 242.906 358.938 242.799C358.864 242.692 358.725 242.666 358.616 242.74L357.332 243.629C356.879 243.935 356.766 244.555 357.073 244.998C357.379 245.441 358.001 245.554 358.444 245.247L358.559 245.168L359.097 244.796L360.046 244.138C360.677 243.71 360.834 242.843 360.401 242.216Z" fill="#407BFF"/>
<path d="M114.483 223.081C114.483 223.081 117.814 220.868 116.206 214.268C116.206 214.268 121.434 212.875 122.286 209.022C122.286 209.022 123.228 212.363 125.11 211.994C126.991 211.625 125.11 208.398 125.11 208.398C125.11 208.398 128.079 211.363 129.594 211.106C131.109 210.848 129.594 208.398 129.594 208.398C129.594 208.398 130.914 211.248 132.551 210.769C134.703 210.139 130.363 205.649 130.363 205.649C130.363 205.649 133.486 210.592 134.389 209.405C135.386 208.092 128.823 201.213 120.304 202.358C120.304 202.358 109.807 200.796 106.995 211.418C106.995 211.418 98.8719 216.476 102.934 224.205C102.934 224.205 96.2686 231.899 100.33 235.926C100.33 235.926 93.6534 247.328 101.684 247.092C109.714 246.857 133 245.48 136.244 243.237C139.488 240.994 135.218 235.613 135.218 235.613C135.218 235.613 136.667 234.017 136.308 230.267C135.947 226.518 133.879 224.956 133.879 224.956C133.879 224.956 136.531 222.967 135.114 219.709C131.746 211.967 118.555 211.405 118.555 211.405C118.555 211.405 119.574 224.228 114.483 223.081Z" fill="#263238"/>
<path d="M176.869 247.93C177.765 244.162 178.004 241.398 178.004 241.398L179.653 237.547C179.653 237.547 182.192 232.994 181.466 231.628C180.594 229.988 176.085 228.758 174.363 229.453C172.842 230.067 171.18 235.189 171.18 235.189L172.185 240.412C172.185 240.412 171.895 242.871 170.957 246.039L176.869 247.93Z" fill="#CE7A63"/>
<path d="M177.847 246.191C175.625 255.543 171.377 269.222 154.7 264.093C146.112 261.452 133.089 254.377 136.79 245.621C140.491 236.865 141.893 250.236 156.495 254.939C167.544 258.498 168.663 250.591 170.641 243.905L177.847 246.191Z" fill="#407BFF"/>
<path d="M116.26 237.175C116.26 237.175 120.586 235.874 126.874 237.818C126.874 237.818 128.907 242.747 124.515 242.964C120.124 243.18 116.207 238.734 116.207 238.734L116.26 237.175Z" fill="#407BFF"/>
<path d="M115.214 240.026C115.214 240.026 118.02 239.92 117.997 236.449C117.976 232.98 117.399 228.762 117.399 228.762L125.735 229.5C125.735 229.5 124.62 239.742 128.433 240.265C128.433 240.265 125.102 245.369 115.214 240.026Z" fill="#CE7A63"/>
<path opacity="0.1" d="M125.734 229.499L117.398 228.76C117.398 228.76 117.609 230.303 117.78 232.288C119.085 234.013 121.527 236.087 125.945 236.807C125.286 233.656 125.734 229.499 125.734 229.499Z" fill="black"/>
<path d="M112.059 217.575C113.169 225.044 113.474 228.229 117.596 231.754C123.798 237.061 132.725 234.07 133.875 226.421C134.909 219.537 132.926 208.487 125.325 206.13C119.902 204.418 114.118 207.426 112.407 212.849C111.925 214.375 111.806 215.993 112.059 217.575Z" fill="#CE7A63"/>
<path d="M128.781 219.303C129.444 220.652 130.289 221.903 131.294 223.021C130.705 223.529 129.922 223.749 129.155 223.624L128.781 219.303Z" fill="#BA4D3C"/>
<path d="M120.567 215.901C120.515 215.893 120.466 215.874 120.423 215.844C120.291 215.744 120.266 215.556 120.366 215.424L120.369 215.42C121.037 214.495 122.113 213.954 123.252 213.97C123.414 213.987 123.534 214.129 123.526 214.292C123.513 214.454 123.374 214.576 123.212 214.567C122.27 214.569 121.388 215.024 120.838 215.788C120.774 215.871 120.672 215.913 120.567 215.901Z" fill="#263238"/>
<path d="M133.534 214.888C133.482 214.88 133.433 214.861 133.389 214.831C132.641 214.268 131.668 214.096 130.773 214.37C130.62 214.433 130.445 214.358 130.383 214.205L130.382 214.202C130.325 214.045 130.403 213.872 130.558 213.812C131.643 213.464 132.83 213.662 133.744 214.342C133.882 214.433 133.92 214.619 133.829 214.756C133.765 214.855 133.649 214.906 133.534 214.888Z" fill="#263238"/>
<path d="M124.38 218.665C124.43 219.273 124.798 219.738 125.203 219.708C125.608 219.676 125.882 219.155 125.824 218.538C125.765 217.922 125.406 217.465 125.01 217.497C124.613 217.528 124.33 218.049 124.38 218.665Z" fill="#263238"/>
<path d="M131.291 218.071C131.341 218.679 131.709 219.144 132.106 219.113C132.502 219.081 132.784 218.56 132.735 217.944C132.685 217.328 132.317 216.871 131.921 216.903C131.523 216.934 131.233 217.455 131.291 218.071Z" fill="#263238"/>
<path d="M131.747 216.951L133.177 216.405C133.177 216.405 132.52 217.612 131.747 216.951Z" fill="#263238"/>
<path d="M124.837 217.545L126.267 216.998C126.267 216.998 125.609 218.206 124.837 217.545Z" fill="#263238"/>
<path d="M127.705 227.188C128.059 227.189 128.411 227.158 128.758 227.096C128.859 227.08 128.927 226.985 128.91 226.885C128.91 226.883 128.909 226.882 128.909 226.879C128.893 226.78 128.8 226.713 128.701 226.728C127.143 227.034 125.534 226.584 124.361 225.516C124.292 225.44 124.174 225.435 124.097 225.503C124.021 225.573 124.016 225.691 124.084 225.767C125.062 226.69 126.36 227.2 127.705 227.188Z" fill="#263238"/>
<path d="M149.616 361.604C149.509 390.673 145.065 478.11 145.065 478.11H136.78C136.78 478.11 131.914 442.596 132.419 411.374C132.601 400.076 133.6 391.443 133.704 384.739C133.891 372.649 124.658 331.231 124.658 331.231L149.698 334.292C149.699 334.289 149.641 354.746 149.616 361.604Z" fill="#CE7A63"/>
<path opacity="0.2" d="M149.22 381.102C149.383 375.622 149.505 370.64 149.568 366.417L131.459 365.591C132.62 372.476 133.513 378.874 133.681 383.057C133.681 383.057 140.449 384.182 149.22 381.102Z" fill="black"/>
<path d="M144.537 475.915L136.507 475.905C136.159 475.911 135.91 476.157 135.905 476.498L134.641 484.218C134.629 484.887 135.184 485.543 135.88 485.686C135.97 485.703 136.059 485.713 136.146 485.713C139.456 485.599 142.372 485.365 146.509 485.299C151.391 485.217 150.275 485.824 156.032 485.808C159.499 485.795 159.3 481.841 157.793 481.672C150.904 480.94 149.779 478.919 146.682 476.554C146.021 476.099 145.258 475.873 144.537 475.915Z" fill="#263238"/>
<path d="M121.714 363.744L106.01 478.507H97.9038C97.9038 478.507 95.1721 445.066 97.2312 416.384C97.9969 405.721 100.128 396.27 101.255 389.623C103.61 375.74 103.19 330.833 103.19 330.833L124.829 334.351L121.714 363.744Z" fill="#CE7A63"/>
<path opacity="0.2" d="M119.22 382.641L121.943 358.001L103.339 357.153C103.121 365.421 102.752 373.485 102.135 379.07C105.959 379.955 112.514 381.791 119.22 382.641Z" fill="black"/>
<path d="M105.736 475.916L97.7051 475.905C97.3576 475.911 97.1032 476.157 97.0926 476.499L95.6931 484.218C95.6696 484.888 96.2126 485.544 96.9065 485.686C96.996 485.704 97.0843 485.713 97.1727 485.713C100.485 485.599 103.404 485.366 107.543 485.3C112.425 485.217 111.299 485.824 117.056 485.809C120.523 485.796 120.393 481.841 118.89 481.673C112.014 480.94 110.925 478.92 107.869 476.554C107.216 476.1 106.458 475.873 105.736 475.916Z" fill="#263238"/>
<path d="M113.877 239.48L116.206 238.735L122.287 242.964H124.515L126.391 242.133L128.564 239.962L130.733 240.849L132.288 246.824V248.646L132.946 250.844L134.861 258.241L136.307 267.783V274.965L135.771 282.685L133.735 278.664L127.999 267.943L123.228 254.435L121.834 249.718L118.19 245.889L115.348 241.034L113.877 239.48Z" fill="#407BFF"/>
<path d="M113.877 239.48L116.206 238.735L122.287 242.964H124.515L126.391 242.133L128.564 239.962L130.733 240.849L132.288 246.824V248.646L132.946 250.844L134.861 258.241L136.307 267.783V274.965L135.771 282.685L133.735 278.664L127.999 267.943L123.228 254.435L121.834 249.718L118.19 245.889L115.348 241.034L113.877 239.48Z" fill="#407BFF"/>
<path opacity="0.5" d="M113.877 239.48L116.206 238.735L122.287 242.964H124.515L126.391 242.133L128.564 239.962L130.733 240.849L132.288 246.824V248.646L132.946 250.844L134.861 258.241L136.307 267.783V274.965L135.771 282.685L133.735 278.664L127.999 267.943L123.228 254.435L121.834 249.718L118.19 245.889L115.348 241.034L113.877 239.48Z" fill="white"/>
<path d="M106.623 302.303C106.623 302.303 100.643 318.692 100.378 328.721C100.126 338.257 101.158 349.356 100.999 358.302C100.828 367.938 99.4766 375.077 99.4766 375.077C99.4766 375.077 131.744 385.331 152.708 376.326C152.708 376.326 155.353 342.531 147.771 302.303L132.945 303.101L106.623 302.303Z" fill="#263238"/>
<path d="M103.416 245.429L110.686 283.587C110.686 283.587 106.503 294.976 102.644 310.896C102.644 310.896 125.047 318.34 131.589 315.077C133.683 314.033 136.092 306.876 136.092 306.876C136.092 306.876 139.859 314.454 142.363 315.077C144.424 315.591 150.083 311.54 150.083 311.54C150.083 311.54 147.436 294.432 144.177 282.738L145.751 269.821C145.751 269.821 148.824 262.623 142.931 249.837L141.235 244.672C141.01 243.986 140.533 243.409 139.894 243.072C138.178 242.166 134.34 240.372 129.099 239.265C129.099 239.265 137.301 258.795 135.372 277.938C135.372 277.938 127.331 249.557 114.486 238.733C114.486 238.733 109.719 239.062 105.312 241.587C103.953 242.364 103.196 243.884 103.416 245.429Z" fill="#407BFF"/>
<path d="M114.483 238.734L116.26 237.175C116.26 237.175 121.084 242.457 124.301 242.281C127.517 242.106 126.874 237.818 126.874 237.818L129.098 239.266L130.09 240.176L129.85 245.888C129.85 245.888 127.034 242.589 125.372 243.071C123.709 243.554 122.285 247.091 122.285 247.091C122.285 247.091 118.549 245.01 114.483 238.734Z" fill="#407BFF"/>
<path opacity="0.8" d="M114.483 238.734L116.26 237.175C116.26 237.175 121.084 242.457 124.301 242.281C127.517 242.106 126.874 237.818 126.874 237.818L129.098 239.266L130.09 240.176L129.85 245.888C129.85 245.888 127.034 242.589 125.372 243.071C123.709 243.554 122.285 247.091 122.285 247.091C122.285 247.091 118.549 245.01 114.483 238.734Z" fill="white"/>
<path d="M135.932 283.702C135.932 283.702 137.593 273.732 137.272 251.755L132.946 249.397L135.664 248.646C135.664 248.646 133.165 242.993 130.966 239.708C130.363 239.552 129.744 239.403 129.096 239.266C129.096 239.266 137.299 262.174 135.369 281.318C135.369 281.318 127.328 249.558 114.483 238.735C114.483 238.735 113.877 238.778 112.907 238.944C114.536 240.658 117.695 244.748 117.769 250.791H121.222L118.405 253.364L135.932 283.702Z" fill="#407BFF"/>
<path opacity="0.2" d="M135.932 283.702C135.932 283.702 138.843 274.982 138.522 253.005L132.946 249.397L136.914 248.646C136.914 248.646 133.165 242.993 130.966 239.708C130.363 239.552 129.744 239.403 129.096 239.266C129.096 239.266 137.299 262.174 135.369 281.318C135.369 281.318 127.328 249.558 114.483 238.735C114.483 238.735 113.877 238.778 112.907 238.944C114.536 240.658 115.195 244.748 115.269 250.791H121.222L117.155 255.864L135.932 283.702Z" fill="black"/>
<path d="M129.44 298.881L147.723 298.409C148.42 298.391 149.029 297.809 149.084 297.111L151.307 268.995C151.363 268.297 150.842 267.744 150.146 267.762L131.863 268.234C131.166 268.252 130.557 268.834 130.501 269.532L128.278 297.648C128.223 298.347 128.743 298.899 129.44 298.881Z" fill="#263238"/>
<path d="M138.638 270.285L143.016 270.172C143.887 270.15 144.649 269.423 144.719 268.549L144.924 265.958L137.391 266.153L137.186 268.743C137.117 269.617 137.768 270.307 138.638 270.285Z" fill="#263238"/>
<path opacity="0.7" d="M138.638 270.285L143.016 270.172C143.887 270.15 144.649 269.423 144.719 268.549L144.924 265.958L137.391 266.153L137.186 268.743C137.117 269.617 137.768 270.307 138.638 270.285Z" fill="white"/>
<path d="M131.023 268.347L131.884 268.325C131.187 268.343 130.578 268.925 130.522 269.623L128.3 297.74C128.244 298.438 128.765 298.991 129.462 298.972L128.601 298.994C127.904 299.012 127.384 298.461 127.44 297.761L129.662 269.645C129.717 268.946 130.327 268.365 131.023 268.347Z" fill="#263238"/>
<path opacity="0.7" d="M131.023 268.347L131.884 268.325C131.187 268.343 130.578 268.925 130.522 269.623L128.3 297.74C128.244 298.438 128.765 298.991 129.462 298.972L128.601 298.994C127.904 299.012 127.384 298.461 127.44 297.761L129.662 269.645C129.717 268.946 130.327 268.365 131.023 268.347Z" fill="white"/>
<path d="M120.028 291.269C123.893 291.021 126.606 290.44 126.606 290.44L130.772 290.89C130.772 290.89 135.868 291.985 136.963 290.89C138.277 289.577 138.132 284.905 136.963 283.461C135.931 282.186 130.547 282.097 130.547 282.097L125.846 284.587C125.846 284.587 123.41 285.03 120.106 285.061L120.028 291.269Z" fill="#CE7A63"/>
<path d="M120.703 291.804C111.111 292.417 93.1663 290.98 93.1875 273.532C93.1981 264.546 97.6745 240.283 107.13 241.258C116.586 242.233 102.965 252.023 102.965 272.289C102.965 283.897 113.806 284.31 120.78 284.244L120.703 291.804Z" fill="#407BFF"/>
<path opacity="0.1" d="M120.703 291.804C111.111 292.417 93.1663 290.98 93.1875 273.532C93.1981 264.546 97.6745 240.283 107.13 241.258C116.586 242.233 102.965 252.023 102.965 272.289C102.965 283.897 113.806 284.31 120.78 284.244L120.703 291.804Z" fill="black"/>
<path d="M114.483 223.081C114.483 223.081 117.814 220.868 116.206 214.268C116.206 214.268 121.435 212.875 122.286 209.022C122.286 209.022 123.228 212.363 125.109 211.994C126.991 211.625 125.109 208.398 125.109 208.398C125.109 208.398 128.079 211.363 129.594 211.106C131.109 210.848 129.594 208.398 129.594 208.398C129.594 208.398 130.926 211.29 132.552 210.769C134.176 210.248 131.87 207.62 131.87 207.62C131.87 207.62 133.977 210.611 134.441 209.195C134.906 207.778 128.822 201.213 120.304 202.358C120.304 202.358 109.807 200.796 106.995 211.418C106.995 211.418 102.526 214.337 104.736 221.283C104.736 221.283 115.524 223.316 114.483 223.081Z" fill="#263238"/>
<path d="M110.794 223.664C111.33 225.023 112.385 226.111 113.725 226.692C115.507 227.446 116.643 225.914 116.356 224.103C116.098 222.478 114.858 220.12 112.968 220.13C111.592 220.181 110.517 221.337 110.568 222.714C110.58 223.042 110.658 223.366 110.794 223.664Z" fill="#CE7A63"/>
<path d="M447.965 158.395C447.965 148.86 438.571 141.13 426.983 141.13C415.395 141.13 406.002 148.86 406.002 158.395C406.002 167.93 415.395 175.66 426.983 175.66C428.142 175.66 429.278 175.58 430.385 175.43L438.942 179.863L438.097 173.036C444.021 169.985 447.965 164.57 447.965 158.395Z" fill="#407BFF"/>
<path opacity="0.5" d="M447.965 158.395C447.965 148.86 438.571 141.13 426.983 141.13C415.395 141.13 406.002 148.86 406.002 158.395C406.002 167.93 415.395 175.66 426.983 175.66C428.142 175.66 429.278 175.58 430.385 175.43L438.942 179.863L438.097 173.036C444.021 169.985 447.965 164.57 447.965 158.395Z" fill="white"/>
<path d="M433.686 159.314C433.686 155.764 430.781 152.893 427.218 152.949C424.011 153 421.049 155.922 420.957 159.128C420.897 161.234 421.863 163.115 423.389 164.316C424.245 164.987 424.839 165.934 425.004 167.01L425.027 167.155C425.143 167.912 425.795 168.472 426.562 168.472H428.075C428.842 168.472 429.494 167.912 429.61 167.155L429.633 167.007C429.795 165.951 430.361 165.001 431.207 164.347C432.716 163.185 433.686 161.365 433.686 159.314Z" fill="white"/>
<path d="M427.67 171.174H426.971C426.033 171.174 425.267 170.407 425.267 169.469C425.267 169.171 425.508 168.93 425.806 168.93H428.836C429.134 168.93 429.375 169.171 429.375 169.469C429.374 170.406 428.607 171.174 427.67 171.174Z" fill="#407BFF"/>
<path opacity="0.2" d="M427.67 171.174H426.971C426.033 171.174 425.267 170.407 425.267 169.469C425.267 169.171 425.508 168.93 425.806 168.93H428.836C429.134 168.93 429.375 169.171 429.375 169.469C429.374 170.406 428.607 171.174 427.67 171.174Z" fill="white"/>
<path d="M429.139 164.436L428.479 164.256L429.318 161.171L428.514 161.65L428.433 160.681L427.321 161.501L426.211 160.681L426.13 161.65L425.325 161.171L426.165 164.256L425.504 164.436L424.22 159.717L425.538 160.501L425.63 159.403L427.321 160.651L429.013 159.403L429.105 160.501L430.423 159.717L429.139 164.436Z" fill="#407BFF"/>
<g opacity="0.5">
<path d="M429.139 164.436L428.479 164.256L429.318 161.171L428.514 161.65L428.433 160.681L427.321 161.501L426.211 160.681L426.13 161.65L425.325 161.171L426.165 164.256L425.504 164.436L424.22 159.717L425.538 160.501L425.63 159.403L427.321 160.651L429.013 159.403L429.105 160.501L430.423 159.717L429.139 164.436Z" fill="white"/>
</g>
<path d="M427.711 146.215H426.929V151.562H427.711V146.215Z" fill="white"/>
<path d="M440.69 159.191H435.343V159.973H440.69V159.191Z" fill="white"/>
<path d="M419.301 159.191H413.954V159.973H419.301V159.191Z" fill="white"/>
<path d="M436.493 149.855L432.712 153.636L433.265 154.189L437.046 150.408L436.493 149.855Z" fill="white"/>
<path d="M421.37 164.978L417.589 168.759L418.142 169.312L421.923 165.532L421.37 164.978Z" fill="white"/>
<path d="M433.273 164.999L432.72 165.552L436.501 169.333L437.054 168.78L433.273 164.999Z" fill="white"/>
<path d="M418.149 149.869L417.596 150.422L421.377 154.203L421.93 153.65L418.149 149.869Z" fill="white"/>
<path d="M116.976 166.861C116.976 154.426 129.226 144.346 144.337 144.346C159.448 144.346 171.698 154.426 171.698 166.861C171.698 179.296 159.448 189.376 144.337 189.376C142.826 189.376 141.345 189.271 139.901 189.077L131.097 194.857L129.844 185.955C122.118 181.975 116.976 174.914 116.976 166.861Z" fill="#407BFF"/>
<path opacity="0.5" d="M116.976 166.861C116.976 154.426 129.226 144.346 144.337 144.346C159.448 144.346 171.698 154.426 171.698 166.861C171.698 179.296 159.448 189.376 144.337 189.376C142.826 189.376 141.345 189.271 139.901 189.077L131.097 194.857L129.844 185.955C122.118 181.975 116.976 174.914 116.976 166.861Z" fill="white"/>
<path d="M135.593 168.06C135.593 163.432 139.381 159.687 144.027 159.76C148.209 159.826 152.073 163.638 152.192 167.818C152.27 170.565 151.012 173.017 149.02 174.582C147.904 175.458 147.129 176.693 146.913 178.094L146.884 178.284C146.732 179.272 145.881 180.002 144.881 180.002H142.907C141.907 180.002 141.056 179.272 140.904 178.284L140.875 178.092C140.663 176.714 139.925 175.476 138.822 174.624C136.859 173.108 135.593 170.733 135.593 168.06Z" fill="white"/>
<path d="M143.415 183.525H144.374C145.584 183.525 146.574 182.536 146.574 181.326V181.294C146.574 180.909 146.261 180.598 145.877 180.598H141.911C141.527 180.598 141.215 180.91 141.215 181.294V181.326C141.216 182.536 142.206 183.525 143.415 183.525Z" fill="#407BFF"/>
<path opacity="0.2" d="M143.415 183.525H144.374C145.584 183.525 146.574 182.536 146.574 181.326V181.294C146.574 180.909 146.261 180.598 145.877 180.598H141.911C141.527 180.598 141.215 180.91 141.215 181.294V181.326C141.216 182.536 142.206 183.525 143.415 183.525Z" fill="white"/>
<path d="M141.523 174.74L142.385 174.504L141.291 170.482L142.34 171.105L142.445 169.844L143.894 170.911L145.343 169.844L145.448 171.105L146.497 170.482L145.403 174.504L146.265 174.74L147.939 168.586L146.22 169.608L146.1 168.176L143.894 169.803L141.687 168.176L141.569 169.608L139.849 168.586L141.523 174.74Z" fill="#407BFF"/>
<g opacity="0.5">
<path d="M141.523 174.74L142.385 174.504L141.291 170.482L142.34 171.105L142.445 169.844L143.894 170.911L145.343 169.844L145.448 171.105L146.497 170.482L145.403 174.504L146.265 174.74L147.939 168.586L146.22 169.608L146.1 168.176L143.894 169.803L141.687 168.176L141.569 169.608L139.849 168.586L141.523 174.74Z" fill="white"/>
</g>
<path d="M144.405 150.978H143.385V157.951H144.405V150.978Z" fill="white"/>
<path d="M133.435 167.9H126.463V168.92H133.435V167.9Z" fill="white"/>
<path d="M161.326 167.9H154.354V168.92H161.326V167.9Z" fill="white"/>
<path d="M131.928 155.712L131.207 156.433L136.138 161.363L136.859 160.642L131.928 155.712Z" fill="white"/>
<path d="M151.649 175.431L150.928 176.152L155.859 181.082L156.58 180.361L151.649 175.431Z" fill="white"/>
<path d="M136.137 175.434L131.207 180.365L131.928 181.086L136.859 176.156L136.137 175.434Z" fill="white"/>
<path d="M155.857 155.718L150.927 160.649L151.648 161.37L156.578 156.44L155.857 155.718Z" fill="white"/>
<path d="M232.944 345.986C232.279 345.986 231.739 345.446 231.739 344.781C231.739 344.115 232.279 343.575 232.944 343.575H265.795C266.461 343.575 267 344.115 267 344.781C267 345.446 266.461 345.986 265.795 345.986H232.944Z" fill="#407BFF"/>
<path opacity="0.5" d="M232.944 345.986C232.279 345.986 231.739 345.446 231.739 344.781C231.739 344.115 232.279 343.575 232.944 343.575H265.795C266.461 343.575 267 344.115 267 344.781C267 345.446 266.461 345.986 265.795 345.986H232.944Z" fill="white"/>
<path d="M235.734 343.899L231.361 312.783C231.201 311.638 230.142 310.71 228.997 310.71H224.807V345.973H233.951C235.098 345.973 235.895 345.044 235.734 343.899Z" fill="#407BFF"/>
<path opacity="0.6" d="M235.734 343.899L231.361 312.783C231.201 311.638 230.142 310.71 228.997 310.71H224.807V345.973H233.951C235.098 345.973 235.895 345.044 235.734 343.899Z" fill="white"/>
<path d="M232.144 345.973H194.999C193.854 345.973 192.796 345.044 192.635 343.901L188.262 312.784C188.101 311.639 188.898 310.712 190.043 310.712H227.188C228.333 310.712 229.391 311.64 229.552 312.784L233.925 343.901C234.086 345.044 233.289 345.973 232.144 345.973Z" fill="#407BFF"/>
<path opacity="0.5" d="M232.144 345.973H194.999C193.854 345.973 192.796 345.044 192.635 343.901L188.262 312.784C188.101 311.639 188.898 310.712 190.043 310.712H227.188C228.333 310.712 229.391 311.64 229.552 312.784L233.925 343.901C234.086 345.044 233.289 345.973 232.144 345.973Z" fill="white"/>
<path opacity="0.7" d="M214.178 329.947C214.427 331.713 213.197 333.144 211.43 333.144C209.664 333.144 208.031 331.713 207.783 329.947C207.534 328.181 208.765 326.75 210.531 326.75C212.298 326.75 213.931 328.182 214.178 329.947Z" fill="white"/>
<path d="M404.222 485.809H401.143L397.179 353.67H401.249L404.222 485.809Z" fill="#263238"/>
<path opacity="0.6" d="M404.222 485.809H401.143L397.179 353.67H401.249L404.222 485.809Z" fill="white"/>
<path d="M354.563 353.67V485.809H357.824L361.657 359.707H400.986L403.862 485.809H407.089V353.67H354.563Z" fill="#263238"/>
<path opacity="0.4" d="M354.563 353.67V485.809H357.824L361.657 359.707H400.986L403.862 485.809H407.089V353.67H354.563Z" fill="white"/>
<path d="M354.564 485.808H351.486L350.494 353.67H354.564V485.808Z" fill="#263238"/>
<path opacity="0.6" d="M354.564 485.808H351.486L350.494 353.67H354.564V485.808Z" fill="white"/>
<path d="M237.067 485.809H233.987L230.023 353.67H234.093L237.067 485.809Z" fill="#263238"/>
<path opacity="0.6" d="M237.067 485.809H233.987L230.023 353.67H234.093L237.067 485.809Z" fill="white"/>
<path d="M187.409 353.67V485.808H190.669L194.502 359.707H233.832L236.706 485.808H239.934V353.67H187.409Z" fill="#263238"/>
<path opacity="0.4" d="M187.409 353.67V485.808H190.669L194.502 359.707H233.832L236.706 485.808H239.934V353.67H187.409Z" fill="white"/>
<path d="M187.409 485.808H184.33L183.339 353.67H187.409V485.808Z" fill="#263238"/>
<path opacity="0.6" d="M187.409 485.808H184.33L183.339 353.67H187.409V485.808Z" fill="white"/>
<path d="M352.023 346.072H177.949V353.67H352.023V346.072Z" fill="#263238"/>
<path opacity="0.4" d="M352.023 346.072H177.949V353.67H352.023V346.072Z" fill="white"/>
<path d="M412.478 346.072H347.292V353.67H412.478V346.072Z" fill="#263238"/>
<path opacity="0.3" d="M412.477 346.072H347.291V353.67H412.477V346.072Z" fill="white"/>
<path d="M379.75 346.261H336.574C335.433 346.261 334.378 345.337 334.218 344.195L329.86 313.185C329.7 312.045 330.495 311.119 331.636 311.119H374.813C375.953 311.119 377.009 312.044 377.169 313.185L381.526 344.195C381.686 345.337 380.891 346.261 379.75 346.261Z" fill="#407BFF"/>
<path opacity="0.5" d="M379.75 346.261H336.574C335.433 346.261 334.378 345.337 334.218 344.195L329.86 313.185C329.7 312.045 330.495 311.119 331.636 311.119H374.813C375.953 311.119 377.009 312.044 377.169 313.185L381.526 344.195C381.686 345.337 380.891 346.261 379.75 346.261Z" fill="white"/>
<path d="M377.049 341.629L338.683 341.451C337.631 341.451 336.659 340.599 336.512 339.548L333.103 316.135C332.956 315.083 333.687 314.231 334.739 314.231L373.105 314.409C374.156 314.409 375.129 315.262 375.276 316.313L378.686 339.726C378.833 340.776 378.1 341.629 377.049 341.629Z" fill="#263238"/>
<path d="M406.661 346.12H354.399C353.596 346.12 352.947 345.47 352.947 344.669C352.947 343.866 353.598 343.217 354.399 343.217H406.661C407.463 343.217 408.112 343.868 408.112 344.669C408.112 345.47 407.463 346.12 406.661 346.12Z" fill="#407BFF"/>
<path opacity="0.7" d="M406.661 346.12H354.4C353.597 346.12 352.948 345.47 352.948 344.669C352.948 343.866 353.598 343.217 354.4 343.217H406.661C407.464 343.217 408.113 343.868 408.113 344.669C408.113 345.47 407.464 346.12 406.661 346.12Z" fill="white"/>
<path d="M365.431 346.12H337.559C336.756 346.12 336.107 345.47 336.107 344.669C336.107 343.866 336.758 343.217 337.559 343.217H365.431C366.234 343.217 366.883 343.868 366.883 344.669C366.884 345.47 366.234 346.12 365.431 346.12Z" fill="#407BFF"/>
<path opacity="0.6" d="M365.431 346.12H337.559C336.756 346.12 336.107 345.47 336.107 344.669C336.107 343.866 336.758 343.217 337.559 343.217H365.431C366.234 343.217 366.883 343.868 366.883 344.669C366.884 345.47 366.234 346.12 365.431 346.12Z" fill="white"/>
</g>
<defs>
<clipPath id="clip0_719_246">
<rect width="589" height="589" fill="white"/>
</clipPath>
</defs>
</svg>
