<svg width="31" height="31" viewBox="0 0 31 31" fill="none" xmlns="http://www.w3.org/2000/svg">
<g clip-path="url(#clip0_560_157)">
<path d="M28.4163 20.912C28.4163 25.6137 25.6134 28.4166 20.9118 28.4166H19.3747C18.6643 28.4166 18.083 27.8353 18.083 27.1249V19.672C18.083 19.3233 18.3672 19.0262 18.7159 19.0262L20.9893 18.9874C21.1701 18.9745 21.3251 18.8454 21.3639 18.6645L21.8159 16.1974C21.8547 15.9649 21.6738 15.7453 21.4284 15.7453L18.6772 15.7841C18.3155 15.7841 18.0314 15.4999 18.0184 15.1512L17.9668 11.9866C17.9668 11.7799 18.1347 11.5991 18.3542 11.5991L21.4542 11.5474C21.6738 11.5474 21.8418 11.3795 21.8418 11.1599L21.7901 8.05991C21.7901 7.84032 21.6222 7.67242 21.4026 7.67242L17.9151 7.7241C15.7709 7.76285 14.0659 9.5195 14.1047 11.6637L14.1693 15.2157C14.1822 15.5774 13.898 15.8616 13.5364 15.8745L11.9863 15.9003C11.7668 15.9003 11.5989 16.0682 11.5989 16.2878L11.6376 18.742C11.6376 18.9616 11.8055 19.1295 12.0251 19.1295L13.5751 19.1037C13.9368 19.1037 14.2209 19.3878 14.2338 19.7366L14.3501 27.0991C14.363 27.8224 13.7817 28.4166 13.0584 28.4166H10.0876C5.38592 28.4166 2.58301 25.6137 2.58301 20.8991V10.0878C2.58301 5.38617 5.38592 2.58325 10.0876 2.58325H20.9118C25.6134 2.58325 28.4163 5.38617 28.4163 10.0878V20.912Z" fill="white"/>
</g>
<defs>
<clipPath id="clip0_560_157">
<rect width="31" height="31" fill="white"/>
</clipPath>
</defs>
</svg>
