<svg width="633" height="528" viewBox="0 0 633 528" fill="none" xmlns="http://www.w3.org/2000/svg">
<path fill-rule="evenodd" clip-rule="evenodd" d="M628.386 311.488L627.682 315.404L626.927 319.302L626.119 323.184L625.26 327.047L624.35 330.891L623.387 334.716L622.373 338.52L621.306 342.303L620.187 346.063L619.014 349.801L617.789 353.514L616.509 357.202L615.175 360.864L613.786 364.499L612.342 368.105L610.841 371.682L609.283 375.228L607.669 378.742L605.996 382.222L604.265 385.668L602.474 389.078L600.625 392.45L598.715 395.783L596.746 399.075L594.716 402.325L592.625 405.531L590.473 408.692L588.26 411.806L585.987 414.871L583.653 417.886L581.258 420.849L578.804 423.759L576.291 426.614L573.719 429.412L571.089 432.152L568.403 434.833L565.661 437.454L562.866 440.013L560.017 442.508L557.118 444.94L554.17 447.306L551.174 449.607L548.134 451.842L545.051 454.01L541.928 456.111L538.767 458.144L535.572 460.11L532.345 462.01L529.089 463.842L525.807 465.609L522.501 467.309L519.176 468.945L515.833 470.517L512.476 472.026L509.108 473.473L505.73 474.86L502.347 476.187L498.961 477.456L495.574 478.669L492.189 479.828L488.81 480.934L485.437 481.989L482.074 482.995L478.724 483.955L475.388 484.87L472.068 485.742L468.766 486.575L465.485 487.37L462.226 488.129L458.991 488.855L455.781 489.551L452.597 490.219L449.442 490.861L446.315 491.48L443.219 492.078L440.153 492.658L437.119 493.222L434.117 493.772L431.148 494.311L428.211 494.841L425.307 495.364L422.436 495.883L419.598 496.398L416.792 496.913L414.018 497.429L411.276 497.948L408.564 498.471L405.883 499L403.23 499.536L400.606 500.08L398.01 500.634L395.439 501.198L392.893 501.774L390.371 502.361L387.871 502.961L385.392 503.574L382.932 504.199L380.49 504.839L378.064 505.491L375.653 506.156L373.256 506.834L370.87 507.523L368.495 508.225L366.128 508.937L363.768 509.659L361.414 510.389L359.064 511.127L356.716 511.871L354.37 512.62L352.024 513.373L349.677 514.126L347.327 514.88L344.973 515.631L342.615 516.378L340.251 517.119L337.88 517.852L335.503 518.574L333.117 519.284L330.722 519.979L328.318 520.657L325.905 521.315L323.482 521.951L321.048 522.564L318.605 523.149L316.152 523.707L313.689 524.233L311.216 524.727L308.734 525.185L306.243 525.606L303.744 525.989L301.238 526.33L298.724 526.63L296.204 526.885L293.679 527.095L291.15 527.258L288.617 527.374L286.082 527.44L283.545 527.458L281.008 527.425L278.472 527.341L275.938 527.205L273.408 527.016L270.882 526.775L268.361 526.48L265.847 526.132L263.342 525.73L260.846 525.274L258.36 524.764L255.887 524.2L253.426 523.583L250.98 522.911L248.55 522.187L246.136 521.409L243.74 520.579L241.363 519.698L239.007 518.765L236.671 517.782L234.358 516.75L232.068 515.669L229.802 514.541L227.561 513.366L225.346 512.146L223.158 510.882L220.997 509.575L218.863 508.227L216.758 506.838L214.682 505.411L212.635 503.947L210.618 502.447L208.631 500.913L206.674 499.347L204.747 497.75L202.851 496.124L200.985 494.47L199.149 492.79L197.343 491.087L195.567 489.36L193.82 487.613L192.103 485.846L190.414 484.063L188.753 482.263L187.119 480.449L185.511 478.624L183.929 476.788L182.37 474.945L180.834 473.095L179.32 471.241L177.826 469.384L176.35 467.527L174.891 465.671L173.446 463.819L172.015 461.971L170.595 460.13L169.183 458.297L167.779 456.473L166.379 454.659L164.982 452.858L163.586 451.069L162.187 449.295L160.785 447.535L159.376 445.791L157.959 444.063L156.532 442.351L155.091 440.656L153.636 438.978L152.163 437.317L150.671 435.672L149.158 434.044L147.622 432.432L146.062 430.836L144.474 429.254L142.858 427.686L141.213 426.131L139.536 424.588L137.826 423.056L136.083 421.533L134.305 420.018L132.49 418.509L130.639 417.005L128.751 415.505L126.824 414.006L124.859 412.507L122.855 411.005L120.812 409.5L118.73 407.988L116.609 406.468L114.45 404.937L112.252 403.395L110.017 401.837L107.746 400.263L105.439 398.67L103.097 397.055L100.723 395.418L98.3177 393.754L95.8826 392.063L93.4199 390.342L90.9316 388.589L88.4201 386.802L85.8877 384.98L83.337 383.119L80.7706 381.219L78.1913 379.277L75.6022 377.292L73.0062 375.263L70.4065 373.188L67.8063 371.066L65.209 368.895L62.6179 366.675L60.0366 364.404L57.4684 362.082L54.917 359.709L52.3858 357.283L49.8786 354.804L47.3989 352.273L44.9502 349.688L42.5362 347.051L40.1604 344.361L37.8263 341.618L35.5372 338.824L33.2967 335.978L31.108 333.082L28.9744 330.137L26.899 327.142L24.8848 324.101L22.9347 321.013L21.0517 317.881L19.2384 314.705L17.4973 311.488L15.8309 308.231L14.2412 304.936L12.7304 301.604L11.3002 298.238L9.95201 294.839L8.68723 291.41L7.50694 287.953L6.41205 284.469L5.40324 280.961L4.48099 277.431L3.64562 273.881L2.89722 270.312L2.23574 266.728L1.66093 263.129L1.1724 259.518L0.769604 255.897L0.451846 252.268L0.218306 248.631L0.0680413 244.99L0 241.346L0.0130317 237.7L0.105899 234.054L0.27729 230.409L0.525829 226.766L0.850086 223.128L1.24859 219.494L1.71986 215.867L2.26236 212.248L2.87457 208.637L3.55499 205.035L4.3021 201.443L5.11444 197.863L5.99054 194.294L6.92902 190.738L7.92853 187.196L8.98777 183.667L10.1055 180.154L11.2807 176.655L12.5121 173.173L13.7988 169.707L15.14 166.259L16.5348 162.829L17.9825 159.417L19.4826 156.025L21.0345 152.653L22.6378 149.302L24.2923 145.973L25.9976 142.667L27.7534 139.384L29.5596 136.126L31.4157 132.894L33.3216 129.689L35.277 126.511L37.2815 123.361L39.335 120.241L41.437 117.152L43.5873 114.094L45.7856 111.068L48.0314 108.076L50.3245 105.119L52.6644 102.197L55.0506 99.3122L57.4828 96.4646L59.9604 93.6555L62.4828 90.8859L65.0496 88.1567L67.6601 85.4689L70.3137 82.8234L73.0097 80.2211L75.7474 77.6627L78.5261 75.1492L81.3449 72.6812L84.2031 70.2596L87.0997 67.885L90.0339 65.5581L93.0048 63.2794L96.0114 61.0496L99.0526 58.8692L102.128 56.7385L105.235 54.6581L108.374 52.6282L111.544 50.6491L114.742 48.721L117.969 46.8442L121.224 45.0187L124.503 43.2446L127.808 41.5218L131.136 39.8504L134.487 38.2302L137.859 36.6609L141.25 35.1424L144.661 33.6742L148.089 32.2557L151.533 30.8864L154.993 29.5655L158.466 28.2921L161.952 27.0654L165.449 25.8844L168.957 24.7479L172.473 23.6548L175.998 22.604L179.531 21.5941L183.069 20.624L186.613 19.6921L190.161 18.7973L193.713 17.9381L197.267 17.1132L200.825 16.3211L204.384 15.5605L207.944 14.83L211.506 14.1282L215.068 13.4539L218.631 12.8056L222.193 12.1822L225.756 11.5825L229.319 11.0051L232.881 10.4491L236.444 9.91337L240.007 9.39684L243.57 8.89856L247.133 8.41766L250.698 7.95329L254.263 7.50468L257.83 7.07111L261.399 6.65195L264.97 6.2466L268.544 5.85454L272.121 5.47529L275.701 5.10844L279.286 4.75362L282.876 4.41051L286.471 4.07885L290.072 3.75839L293.679 3.44892L297.294 3.15028L300.916 2.8623L304.547 2.58494L308.187 2.31824L311.836 2.06239L315.496 1.81769L319.166 1.58458L322.848 1.36359L326.542 1.1554L330.248 0.96078L333.967 0.780619L337.7 0.615915L341.446 0.467769L345.207 0.337378L348.981 0.226037L352.77 0.135126L356.574 0.0661097L360.393 0.0205302L364.226 0L368.073 0.00619639L371.935 0.0408548L375.811 0.105762L379.701 0.202749L383.604 0.333684L387.519 0.500466L391.446 0.705016L395.385 0.949271L399.334 1.23518L403.293 1.56468L407.26 1.93972L411.234 2.36223L415.215 2.83411L419.2 3.35724L423.19 3.93348L427.181 4.56462L431.173 5.25242L435.164 5.99859L439.152 6.80479L443.136 7.67258L447.113 8.60349L451.083 9.59895L455.042 10.6603L458.99 11.7889L462.923 12.9858L466.841 14.2522L470.74 15.5889L474.619 16.9968L478.476 18.4764L482.309 20.028L486.115 21.6519L489.894 23.348L493.643 25.1164L497.361 26.9566L501.046 28.8684L504.696 30.8512L508.31 32.9044L511.886 35.0271L515.424 37.2187L518.92 39.478L522.376 41.8041L525.788 44.196L529.157 46.6523L532.481 49.1719L535.759 51.7536L538.991 54.3959L542.174 57.0975L545.31 59.8571L548.397 62.6732L551.434 65.5444L554.421 68.4692L557.358 71.4462L560.243 74.474L563.076 77.5511L565.858 80.6761L568.587 83.8475L571.263 87.0639L573.886 90.3241L576.456 93.6265L578.973 96.9698L581.435 100.353L583.843 103.774L586.196 107.233L588.495 110.727L590.739 114.256L592.928 117.818L595.061 121.413L597.138 125.039L599.159 128.695L601.123 132.38L603.031 136.093L604.881 139.833L606.674 143.599L608.409 147.39L610.085 151.205L611.702 155.042L613.261 158.902L614.76 162.783L616.2 166.683L617.579 170.602L618.899 174.539L620.158 178.493L621.357 182.462L622.495 186.446L623.572 190.443L624.589 194.452L625.545 198.473L626.44 202.504L627.274 206.545L628.048 210.593L628.761 214.649L629.414 218.71L630.006 222.777L630.538 226.847L631.01 230.92L631.422 234.995L631.775 239.071L632.069 243.147L632.304 247.221L632.481 251.293L632.599 255.362L632.66 259.427L632.663 263.487L632.61 267.541L632.5 271.587L632.334 275.626L632.112 279.657L631.835 283.678L631.503 287.688L631.117 291.688L630.677 295.675L630.184 299.649L629.637 303.61L629.038 307.557L628.386 311.488Z" fill="url(#paint0_linear_612_210)"/>
<defs>
<linearGradient id="paint0_linear_612_210" x1="316.332" y1="0" x2="316.332" y2="527.458" gradientUnits="userSpaceOnUse">
<stop stop-color="#F6FDFF"/>
<stop offset="1" stop-color="white"/>
</linearGradient>
</defs>
</svg>
